<svg width="1310" height="1866" viewBox="0 0 1310 1866" fill="none" xmlns="http://www.w3.org/2000/svg">
<path fill-rule="evenodd" clip-rule="evenodd" d="M865.35 3.465C974.343 16.7789 1073.73 72.423 1142.03 158.379C1210.88 245.781 1242.23 356.913 1229.22 467.397C1215.35 577.705 1163.94 678.951 1075.4 747.827C1085.66 752.783 1099.56 761.83 1109.2 768.209C1177.28 813.69 1231.51 877.044 1265.94 951.324C1319.48 1069.41 1324.42 1203.8 1279.69 1325.5C1235.99 1441.57 1153.99 1537.15 1039.87 1588.39C1001.79 1605.67 961.319 1617.05 919.817 1622.13C891.181 1625.58 864.612 1625.49 836.535 1625.4H836.533L457.802 1625.59C407 1625.59 412.416 1632 436.243 1569.65C456.554 1516.5 481.568 1476.81 492.628 1460.16C503.688 1443.5 534.959 1434.1 564.208 1434.87L712.501 1435.13L523.377 1055.2L291.966 1564.93C266.606 1623.38 264.547 1628.12 183.497 1625.43C173.426 1625.09 163.989 1625.16 154.996 1625.23H154.993H154.99H154.988C117.338 1625.5 87.44 1625.72 51.1094 1595.91C-0.531944 1553.54 -0.127862 1507.54 0.374176 1450.39L0.263094 213.851C-0.0758254 193.314 -0.431268 171.776 1.57479 152.809C10.4682 68.7206 78.9283 9.74602 159.433 0.874393C165.848 -0.0604466 181.081 -0.0152369 189.424 0.00952401L785.805 0.029728C813.372 0.00597002 837.286 -0.0146406 865.35 3.465ZM640.671 868.452C637.405 860.315 647.967 852.952 654.828 851.238L854.402 851.78C919.373 857.127 980.856 883.398 1029.62 926.641C1143.37 1028.99 1163.14 1205.96 1073.6 1331.03C1065.28 1342.64 1056.65 1352.26 1047.18 1362.8L1047.18 1362.81L1046.26 1363.83C1011.28 1398.54 967.425 1422.97 919.499 1434.45L640.671 868.452ZM177.31 214.487C177.858 191.216 190.886 179.651 213.777 178.217L814.993 178.461C993.064 184.039 1101.94 363.76 1027.38 525.999C1012.45 557.865 990.603 586 963.413 608.35C925.041 639.648 878.132 658.669 828.791 662.932L632.08 663.659C601.844 663.291 571.849 662.925 543.812 674.226C480.087 699.909 441.052 799.411 441.052 799.411L177.127 1374.91L177.026 262.171C177.026 259.506 177.024 256.844 177.022 254.183C177.01 240.945 176.999 227.738 177.31 214.487Z" fill="#D9D9D9"/>
<path d="M36.6875 1864V1772.75H77.6197C88.1352 1772.75 96.2174 1774.88 101.866 1779.14C107.515 1783.31 110.339 1789.04 110.339 1796.34C110.339 1801.3 109.21 1805.47 106.95 1808.86C104.778 1812.25 101.823 1814.86 98.0858 1816.68C94.3489 1818.51 90.3079 1819.42 85.9626 1819.42L88.309 1815.51C93.5233 1815.51 98.1293 1816.42 102.127 1818.24C106.125 1820.07 109.297 1822.76 111.643 1826.33C113.989 1829.8 115.163 1834.15 115.163 1839.36C115.163 1847.18 112.208 1853.27 106.298 1857.61C100.476 1861.87 91.7852 1864 80.2269 1864H36.6875ZM49.7232 1853.44H79.7055C86.9186 1853.44 92.437 1852.22 96.2608 1849.79C100.085 1847.36 101.997 1843.53 101.997 1838.32C101.997 1833.02 100.085 1829.15 96.2608 1826.72C92.437 1824.28 86.9186 1823.07 79.7055 1823.07H48.55V1812.51H76.4465C83.0513 1812.51 88.1787 1811.29 91.8287 1808.86C95.4787 1806.43 97.3037 1802.78 97.3037 1797.91C97.3037 1793.04 95.4787 1789.39 91.8287 1786.96C88.1787 1784.53 83.0513 1783.31 76.4465 1783.31H49.7232V1853.44Z" fill="#D0D0D0"/>
<path d="M167.936 1864V1772.75H203.524C215.343 1772.75 224.642 1775.57 231.42 1781.22C238.199 1786.79 241.588 1794.56 241.588 1804.56C241.588 1811.16 240.067 1816.85 237.025 1821.63C233.984 1826.33 229.639 1829.93 223.99 1832.45C218.341 1834.97 211.519 1836.23 203.524 1836.23H175.106L180.972 1830.24V1864H167.936ZM228.943 1864L205.74 1830.89H219.688L243.152 1864H228.943ZM180.972 1831.54L175.106 1825.15H203.133C211.475 1825.15 217.776 1823.37 222.034 1819.81C226.38 1816.16 228.552 1811.07 228.552 1804.56C228.552 1798.04 226.38 1793 222.034 1789.44C217.776 1785.87 211.475 1784.09 203.133 1784.09H175.106L180.972 1777.57V1831.54Z" fill="#D0D0D0"/>
<path d="M333.042 1865.04C321.049 1865.04 311.62 1861.61 304.754 1854.74C297.889 1847.88 294.456 1837.84 294.456 1824.63V1772.75H307.492V1824.11C307.492 1834.28 309.708 1841.71 314.14 1846.4C318.659 1851.09 325.003 1853.44 333.172 1853.44C341.428 1853.44 347.772 1851.09 352.204 1846.4C356.723 1841.71 358.983 1834.28 358.983 1824.11V1772.75H371.628V1824.63C371.628 1837.84 368.195 1847.88 361.329 1854.74C354.551 1861.61 345.122 1865.04 333.042 1865.04Z" fill="#D0D0D0"/>
<path d="M471.744 1865.04C464.792 1865.04 458.361 1863.91 452.451 1861.65C446.629 1859.31 441.545 1856.05 437.199 1851.88C432.941 1847.62 429.595 1842.66 427.162 1837.02C424.729 1831.37 423.512 1825.15 423.512 1818.37C423.512 1811.6 424.729 1805.38 427.162 1799.73C429.595 1794.09 432.985 1789.17 437.33 1785C441.675 1780.75 446.759 1777.49 452.582 1775.23C458.491 1772.88 464.922 1771.71 471.875 1771.71C478.914 1771.71 485.388 1772.92 491.298 1775.36C497.294 1777.7 502.378 1781.22 506.55 1785.92L498.076 1794.13C494.6 1790.48 490.689 1787.78 486.344 1786.05C481.999 1784.22 477.35 1783.31 472.396 1783.31C467.269 1783.31 462.489 1784.18 458.057 1785.92C453.711 1787.65 449.931 1790.09 446.716 1793.22C443.5 1796.34 440.98 1800.08 439.155 1804.43C437.417 1808.69 436.548 1813.33 436.548 1818.37C436.548 1823.42 437.417 1828.11 439.155 1832.45C440.98 1836.71 443.5 1840.41 446.716 1843.53C449.931 1846.66 453.711 1849.1 458.057 1850.83C462.489 1852.57 467.269 1853.44 472.396 1853.44C477.35 1853.44 481.999 1852.57 486.344 1850.83C490.689 1849.01 494.6 1846.23 498.076 1842.49L506.55 1850.7C502.378 1855.4 497.294 1858.96 491.298 1861.39C485.388 1863.83 478.87 1865.04 471.744 1865.04Z" fill="#D0D0D0"/>
<path d="M556.462 1864V1772.75H620.859V1784.09H569.498V1852.66H622.684V1864H556.462ZM568.325 1823.2V1812.12H615.253V1823.2H568.325Z" fill="#D0D0D0"/>
<path d="M730.16 1864L771.484 1772.75H784.389L825.843 1864H812.155L775.264 1780.05H780.478L743.587 1864H730.16ZM747.759 1841.19L751.278 1830.76H802.639L806.42 1841.19H747.759Z" fill="#D0D0D0"/>
<path d="M872.044 1864V1772.75H885.08V1852.66H934.486V1864H872.044Z" fill="#D0D0D0"/>
<path d="M1001.62 1864L961.469 1772.75H975.547L1012.44 1856.96H1004.36L1041.51 1772.75H1054.54L1014.52 1864H1001.62Z" fill="#D0D0D0"/>
<path d="M1098.77 1864V1772.75H1163.17V1784.09H1111.81V1852.66H1164.99V1864H1098.77ZM1110.63 1823.2V1812.12H1157.56V1823.2H1110.63Z" fill="#D0D0D0"/>
<path d="M1245.28 1865.04C1238.33 1865.04 1231.68 1864 1225.34 1861.91C1218.99 1859.74 1214 1856.96 1210.35 1853.57L1215.17 1843.4C1218.64 1846.45 1223.08 1848.97 1228.46 1850.96C1233.85 1852.96 1239.46 1853.96 1245.28 1853.96C1250.58 1853.96 1254.88 1853.35 1258.19 1852.14C1261.49 1850.92 1263.92 1849.27 1265.49 1847.18C1267.05 1845.01 1267.83 1842.58 1267.83 1839.88C1267.83 1836.76 1266.79 1834.24 1264.7 1832.32C1262.71 1830.41 1260.05 1828.89 1256.75 1827.76C1253.54 1826.54 1249.97 1825.5 1246.06 1824.63C1242.15 1823.76 1238.2 1822.76 1234.2 1821.63C1230.29 1820.42 1226.68 1818.9 1223.38 1817.07C1220.17 1815.25 1217.56 1812.81 1215.56 1809.77C1213.56 1806.64 1212.56 1802.65 1212.56 1797.78C1212.56 1793.09 1213.78 1788.78 1216.21 1784.87C1218.73 1780.88 1222.56 1777.7 1227.68 1775.36C1232.9 1772.92 1239.5 1771.71 1247.5 1771.71C1252.8 1771.71 1258.06 1772.4 1263.27 1773.79C1268.48 1775.18 1273 1777.18 1276.83 1779.79L1272.53 1790.22C1268.62 1787.61 1264.49 1785.74 1260.14 1784.61C1255.8 1783.4 1251.58 1782.79 1247.5 1782.79C1242.37 1782.79 1238.15 1783.44 1234.85 1784.74C1231.55 1786.05 1229.12 1787.78 1227.55 1789.96C1226.07 1792.13 1225.34 1794.56 1225.34 1797.26C1225.34 1800.47 1226.34 1803.04 1228.33 1804.95C1230.42 1806.86 1233.07 1808.38 1236.29 1809.51C1239.59 1810.64 1243.2 1811.68 1247.11 1812.64C1251.02 1813.51 1254.93 1814.51 1258.84 1815.64C1262.84 1816.77 1266.44 1818.24 1269.66 1820.07C1272.96 1821.89 1275.61 1824.33 1277.61 1827.37C1279.61 1830.41 1280.61 1834.32 1280.61 1839.1C1280.61 1843.71 1279.35 1848.01 1276.83 1852.01C1274.31 1855.92 1270.4 1859.09 1265.1 1861.52C1259.88 1863.87 1253.28 1865.04 1245.28 1865.04Z" fill="#D0D0D0"/>
</svg>
