<svg width="5207" height="1227" viewBox="0 0 5207 1227" fill="none" xmlns="http://www.w3.org/2000/svg">
<path d="M1388 744.183V478.042H1507.38C1538.05 478.042 1561.63 484.252 1578.1 496.671C1594.58 508.838 1602.81 525.567 1602.81 546.858C1602.81 561.306 1599.52 573.472 1592.93 583.357C1586.59 593.243 1577.97 600.847 1567.07 606.17C1556.18 611.492 1544.39 614.154 1531.72 614.154L1538.56 602.748C1553.77 602.748 1567.2 605.409 1578.86 610.732C1590.52 616.055 1599.77 623.912 1606.62 634.304C1613.46 644.443 1616.88 657.117 1616.88 672.325C1616.88 695.137 1608.26 712.879 1591.03 725.553C1574.05 737.973 1548.7 744.183 1514.99 744.183H1388ZM1426.02 713.386H1513.47C1534.5 713.386 1550.6 709.838 1561.75 702.741C1572.9 695.644 1578.48 684.491 1578.48 669.283C1578.48 653.821 1572.9 642.542 1561.75 635.445C1550.6 628.348 1534.5 624.799 1513.47 624.799H1422.6V594.003H1503.96C1523.23 594.003 1538.18 590.455 1548.83 583.357C1559.47 576.26 1564.79 565.615 1564.79 551.42C1564.79 537.226 1559.47 526.581 1548.83 519.484C1538.18 512.386 1523.23 508.838 1503.96 508.838H1426.02V713.386Z" fill="#D0D0D0"/>
<path d="M1789.81 744.183V478.042H1893.61C1928.08 478.042 1955.2 486.279 1974.97 502.755C1994.74 518.977 2004.62 541.662 2004.62 570.811C2004.62 590.074 2000.19 606.676 1991.32 620.617C1982.45 634.304 1969.77 644.823 1953.3 652.174C1936.82 659.524 1916.92 663.2 1893.61 663.2H1810.72L1827.83 645.71V744.183H1789.81ZM1967.74 744.183L1900.07 647.611H1940.75L2009.19 744.183H1967.74ZM1827.83 649.512L1810.72 630.883H1892.47C1916.8 630.883 1935.17 625.687 1947.59 615.294C1960.27 604.649 1966.6 589.821 1966.6 570.811C1966.6 551.801 1960.27 537.1 1947.59 526.707C1935.17 516.315 1916.8 511.119 1892.47 511.119H1810.72L1827.83 492.109V649.512Z" fill="#D0D0D0"/>
<path d="M2290.37 747.224C2255.39 747.224 2227.89 737.212 2207.87 717.188C2187.84 697.164 2177.83 667.889 2177.83 629.362V478.042H2215.85V627.841C2215.85 657.497 2222.31 679.168 2235.24 692.855C2248.42 706.543 2266.92 713.386 2290.75 713.386C2314.83 713.386 2333.33 706.543 2346.26 692.855C2359.44 679.168 2366.03 657.497 2366.03 627.841V478.042H2402.91V629.362C2402.91 667.889 2392.9 697.164 2372.87 717.188C2353.1 737.212 2325.6 747.224 2290.37 747.224Z" fill="#D0D0D0"/>
<path d="M2713.92 747.224C2693.64 747.224 2674.89 743.929 2657.65 737.339C2640.67 730.495 2625.84 720.99 2613.17 708.824C2600.75 696.404 2590.99 681.956 2583.89 665.481C2576.79 649.006 2573.25 630.883 2573.25 611.112C2573.25 591.342 2576.79 573.219 2583.89 556.743C2590.99 540.268 2600.87 525.947 2613.55 513.781C2626.22 501.361 2641.05 491.856 2658.03 485.265C2675.27 478.422 2694.02 475 2714.3 475C2734.83 475 2753.71 478.549 2770.95 485.646C2788.44 492.489 2803.27 502.755 2815.43 516.442L2790.72 540.395C2780.58 529.749 2769.18 521.892 2756.5 516.822C2743.83 511.499 2730.27 508.838 2715.82 508.838C2700.87 508.838 2686.93 511.373 2674 516.442C2661.33 521.511 2650.3 528.608 2640.92 537.733C2631.54 546.858 2624.19 557.757 2618.87 570.431C2613.8 582.85 2611.27 596.411 2611.27 611.112C2611.27 625.813 2613.8 639.501 2618.87 652.174C2624.19 664.594 2631.54 675.366 2640.92 684.491C2650.3 693.616 2661.33 700.713 2674 705.782C2686.93 710.852 2700.87 713.386 2715.82 713.386C2730.27 713.386 2743.83 710.852 2756.5 705.782C2769.18 700.459 2780.58 692.349 2790.72 681.449L2815.43 705.402C2803.27 719.089 2788.44 729.482 2770.95 736.579C2753.71 743.676 2734.7 747.224 2713.92 747.224Z" fill="#D0D0D0"/>
<path d="M2980.02 744.183V478.042H3167.84V511.119H3018.04V711.105H3173.16V744.183H2980.02ZM3014.62 625.18V592.862H3151.49V625.18H3014.62Z" fill="#D0D0D0"/>
<path d="M3524.65 744.183L3645.17 478.042H3682.81L3803.72 744.183H3763.8L3656.2 499.333H3671.41L3563.81 744.183H3524.65ZM3575.98 677.647L3586.24 647.231H3736.04L3747.07 677.647H3575.98Z" fill="#D0D0D0"/>
<path d="M3957.48 744.183V478.042H3995.5V711.105H4139.6V744.183H3957.48Z" fill="#D0D0D0"/>
<path d="M4354.41 744.183L4237.3 478.042H4278.37L4385.96 723.652H4362.39L4470.75 478.042H4508.77L4392.05 744.183H4354.41Z" fill="#D0D0D0"/>
<path d="M4656.77 744.183V478.042H4844.59V511.119H4694.79V711.105H4849.91V744.183H4656.77ZM4691.37 625.18V592.862H4828.24V625.18H4691.37Z" fill="#D0D0D0"/>
<path d="M5103.09 747.224C5082.82 747.224 5063.43 744.183 5044.92 738.099C5026.42 731.763 5011.85 723.652 5001.2 713.767L5015.27 684.111C5025.41 692.982 5038.33 700.333 5054.05 706.163C5069.76 711.992 5086.11 714.907 5103.09 714.907C5118.56 714.907 5131.1 713.133 5140.73 709.584C5150.37 706.036 5157.46 701.22 5162.03 695.137C5166.59 688.8 5168.87 681.703 5168.87 673.845C5168.87 664.721 5165.83 657.37 5159.74 651.794C5153.91 646.217 5146.18 641.782 5136.55 638.487C5127.17 634.938 5116.78 631.896 5105.38 629.362C5093.97 626.827 5082.44 623.912 5070.78 620.617C5059.37 617.069 5048.85 612.633 5039.22 607.31C5029.84 601.987 5022.24 594.89 5016.41 586.019C5010.58 576.894 5007.66 565.234 5007.66 551.04C5007.66 537.353 5011.21 524.806 5018.31 513.4C5025.66 501.741 5036.81 492.489 5051.77 485.646C5066.98 478.549 5086.24 475 5109.56 475C5125.02 475 5140.35 477.028 5155.56 481.083C5170.77 485.139 5183.95 490.968 5195.1 498.572L5182.56 528.989C5171.15 521.385 5159.11 515.935 5146.44 512.64C5133.76 509.091 5121.47 507.317 5109.56 507.317C5094.6 507.317 5082.31 509.218 5072.68 513.02C5063.05 516.822 5055.95 521.892 5051.39 528.228C5047.08 534.565 5044.92 541.662 5044.92 549.519C5044.92 558.898 5047.84 566.375 5053.67 571.951C5059.75 577.528 5067.48 581.963 5076.86 585.258C5086.49 588.554 5097.01 591.595 5108.42 594.383C5119.82 596.918 5131.23 599.833 5142.64 603.128C5154.3 606.423 5164.81 610.732 5174.19 616.055C5183.82 621.378 5191.55 628.475 5197.38 637.346C5203.21 646.217 5206.13 657.623 5206.13 671.564C5206.13 684.998 5202.45 697.545 5195.1 709.204C5187.75 720.61 5176.35 729.862 5160.89 736.959C5145.68 743.802 5126.41 747.224 5103.09 747.224Z" fill="#D0D0D0"/>
<path fill-rule="evenodd" clip-rule="evenodd" d="M652.646 2.61473C734.848 12.6615 809.808 54.6513 861.316 119.515C913.24 185.47 936.889 269.331 927.074 352.703C916.616 435.943 877.838 512.345 811.064 564.32C818.803 568.059 829.284 574.887 836.555 579.7C887.902 614.021 928.806 661.828 954.772 717.881C995.149 806.989 998.876 908.401 965.142 1000.24C932.182 1087.82 870.34 1159.95 784.265 1198.62C755.552 1211.66 725.025 1220.24 693.725 1224.08C672.127 1226.68 652.089 1226.62 630.914 1226.55H630.912L345.273 1226.69C306.959 1226.69 311.043 1231.53 329.014 1184.48C344.332 1144.37 363.198 1114.42 371.539 1101.85C379.881 1089.28 403.466 1082.19 425.525 1082.77L537.367 1082.97L394.73 796.265L220.2 1180.91C201.074 1225.02 199.521 1228.6 138.394 1226.57C130.797 1226.31 123.681 1226.37 116.898 1226.42H116.895H116.893H116.891C88.4962 1226.63 65.9471 1226.79 38.5466 1204.29C-0.401192 1172.32 -0.0964336 1137.61 0.282203 1094.49L0.198425 161.375C-0.0571874 145.877 -0.325262 129.624 1.18771 115.311C7.8951 51.8574 59.5276 7.35447 120.244 0.659828C125.083 -0.0456137 136.571 -0.011498 142.863 0.00718694L592.653 0.0224331C613.444 0.00450505 631.48 -0.011048 652.646 2.61473ZM483.193 655.345C480.73 649.205 488.696 643.648 493.87 642.355L644.389 642.764C693.389 646.799 739.76 666.624 776.534 699.255C862.332 776.492 877.24 910.031 809.706 1004.41C803.434 1013.18 796.922 1020.43 789.784 1028.39L789.783 1028.39L789.09 1029.16C762.707 1055.35 729.63 1073.79 693.485 1082.45L483.193 655.345ZM133.727 161.855C134.14 144.294 143.966 135.567 161.23 134.485L614.666 134.669C748.967 138.878 831.082 274.498 774.846 396.925C763.592 420.972 747.111 442.203 726.605 459.068C697.664 482.686 662.286 497.04 625.073 500.257L476.714 500.806C453.91 500.528 431.288 500.251 410.142 508.779C362.081 528.16 332.641 603.246 332.641 603.246L133.589 1037.52L133.513 197.837C133.513 195.827 133.511 193.818 133.51 191.81C133.501 181.82 133.492 171.854 133.727 161.855Z" fill="#D9D9D9"/>
</svg>
