<svg width="1310" height="1626" viewBox="0 0 1310 1626" fill="none" xmlns="http://www.w3.org/2000/svg">
<path fill-rule="evenodd" clip-rule="evenodd" d="M865.35 3.465C974.343 16.7789 1073.73 72.423 1142.03 158.379C1210.88 245.781 1242.23 356.913 1229.22 467.397C1215.35 577.705 1163.94 678.951 1075.4 747.827C1085.66 752.783 1099.56 761.83 1109.2 768.209C1177.28 813.69 1231.51 877.044 1265.94 951.324C1319.48 1069.41 1324.42 1203.8 1279.69 1325.5C1235.99 1441.57 1153.99 1537.15 1039.87 1588.39C1001.79 1605.67 961.319 1617.05 919.817 1622.13C891.181 1625.58 864.612 1625.49 836.535 1625.4H836.533L457.802 1625.59C407 1625.59 412.416 1632 436.243 1569.65C456.554 1516.5 481.568 1476.81 492.628 1460.16C503.688 1443.5 534.959 1434.1 564.208 1434.87L712.501 1435.13L523.377 1055.2L291.966 1564.93C266.606 1623.38 264.547 1628.12 183.497 1625.43C173.426 1625.09 163.989 1625.16 154.996 1625.23H154.993H154.99H154.988C117.338 1625.5 87.44 1625.72 51.1094 1595.91C-0.531944 1553.54 -0.127862 1507.54 0.374176 1450.39L0.263094 213.851C-0.0758254 193.314 -0.431268 171.776 1.57479 152.809C10.4682 68.7206 78.9283 9.74602 159.433 0.874393C165.848 -0.0604466 181.081 -0.0152369 189.424 0.00952401L785.805 0.029728C813.372 0.00597002 837.286 -0.0146406 865.35 3.465ZM640.671 868.452C637.405 860.315 647.967 852.952 654.828 851.238L854.402 851.78C919.373 857.127 980.856 883.398 1029.62 926.641C1143.37 1028.99 1163.14 1205.96 1073.6 1331.03C1065.28 1342.64 1056.65 1352.26 1047.18 1362.8L1047.18 1362.81L1046.26 1363.83C1011.28 1398.54 967.425 1422.97 919.499 1434.45L640.671 868.452ZM177.31 214.487C177.858 191.216 190.886 179.651 213.777 178.217L814.993 178.461C993.064 184.039 1101.94 363.76 1027.38 525.999C1012.45 557.865 990.603 586 963.413 608.35C925.041 639.648 878.132 658.669 828.791 662.932L632.08 663.659C601.844 663.291 571.849 662.925 543.812 674.226C480.087 699.909 441.052 799.411 441.052 799.411L177.127 1374.91L177.026 262.171C177.026 259.506 177.024 256.844 177.022 254.183C177.01 240.945 176.999 227.738 177.31 214.487Z" fill="white"/>
</svg>
